<svg width="65" height="64" viewBox="0 0 65 64" fill="none" xmlns="http://www.w3.org/2000/svg">
<circle cx="32" cy="32" r="32" fill="black"/>
<path d="M4.684 37C4.516 37 4.39 36.958 4.306 36.874C4.222 36.79 4.18 36.664 4.18 36.496V29.884H1.852C1.684 29.884 1.558 29.842 1.474 29.758C1.39 29.674 1.348 29.548 1.348 29.38C1.348 29.212 1.39 29.086 1.474 29.002C1.558 28.918 1.684 28.876 1.852 28.876H7.516C7.684 28.876 7.81 28.918 7.894 29.002C7.978 29.086 8.02 29.212 8.02 29.38C8.02 29.548 7.978 29.674 7.894 29.758C7.81 29.842 7.684 29.884 7.516 29.884H5.188V36.496C5.188 36.656 5.144 36.78 5.056 36.868C4.972 36.956 4.848 37 4.684 37ZM9.88872 37C9.55272 37 9.38472 36.832 9.38472 36.496V29.056C9.38472 28.72 9.55272 28.552 9.88872 28.552C10.2247 28.552 10.3927 28.72 10.3927 29.056V31.618C10.8167 31.15 11.4407 30.916 12.2647 30.916H12.6007C13.4007 30.916 13.9927 31.108 14.3767 31.492C14.7607 31.876 14.9527 32.468 14.9527 33.268V36.496C14.9527 36.832 14.7847 37 14.4487 37C14.1127 37 13.9447 36.832 13.9447 36.496V33.268C13.9447 32.744 13.8487 32.39 13.6567 32.206C13.4687 32.018 13.1167 31.924 12.6007 31.924H12.2647C11.7847 31.924 11.3667 31.98 11.0107 32.092C10.6547 32.2 10.4487 32.372 10.3927 32.608V36.496C10.3927 36.832 10.2247 37 9.88872 37ZM17.666 29.932C17.286 29.932 17.096 29.74 17.096 29.356V29.002C17.096 28.626 17.286 28.438 17.666 28.438H18.014C18.378 28.438 18.56 28.626 18.56 29.002V29.356C18.56 29.74 18.378 29.932 18.014 29.932H17.666ZM17.834 37C17.498 37 17.33 36.832 17.33 36.496V31.42C17.33 31.084 17.498 30.916 17.834 30.916C18.17 30.916 18.338 31.084 18.338 31.42V36.496C18.338 36.832 18.17 37 17.834 37ZM21.3379 37C21.0019 37 20.8339 36.832 20.8339 36.496V31.42C20.8339 31.084 21.0019 30.916 21.3379 30.916C21.6739 30.916 21.8419 31.084 21.8419 31.42V31.618C22.2659 31.15 22.8899 30.916 23.7139 30.916H24.0499C24.8499 30.916 25.4419 31.108 25.8259 31.492C26.2099 31.876 26.4019 32.468 26.4019 33.268V36.496C26.4019 36.832 26.2339 37 25.8979 37C25.5619 37 25.3939 36.832 25.3939 36.496V33.268C25.3939 32.744 25.2979 32.39 25.1059 32.206C24.9179 32.018 24.5659 31.924 24.0499 31.924H23.7139C23.2339 31.924 22.8159 31.98 22.4599 32.092C22.1039 32.2 21.8979 32.372 21.8419 32.608V36.496C21.8419 36.832 21.6739 37 21.3379 37ZM30.2193 39.4C29.7353 39.4 29.3533 39.302 29.0732 39.106C28.7973 38.91 28.6193 38.612 28.5393 38.212C28.5113 38.044 28.5413 37.912 28.6293 37.816C28.7173 37.72 28.8513 37.672 29.0312 37.672C29.1833 37.672 29.2933 37.712 29.3613 37.792C29.4333 37.876 29.4953 38 29.5473 38.164C29.5953 38.252 29.6693 38.312 29.7693 38.344C29.8733 38.376 30.0233 38.392 30.2193 38.392H32.4513C32.7513 38.392 32.9453 38.344 33.0333 38.248C33.1253 38.156 33.1713 37.964 33.1713 37.672V36.274C32.9553 36.51 32.6873 36.69 32.3673 36.814C32.0513 36.938 31.6953 37 31.2993 37H30.8433C30.0473 37 29.4553 36.808 29.0673 36.424C28.6833 36.04 28.4913 35.452 28.4913 34.66V33.268C28.4913 32.464 28.6813 31.872 29.0613 31.492C29.4453 31.108 30.0393 30.916 30.8433 30.916H31.8273C32.1113 30.916 32.3653 30.958 32.5893 31.042C32.8173 31.126 33.0113 31.254 33.1713 31.426V31.42C33.1713 31.084 33.3393 30.916 33.6753 30.916C34.0113 30.916 34.1793 31.084 34.1793 31.42V37.672C34.1793 38.26 34.0373 38.694 33.7533 38.974C33.4733 39.258 33.0393 39.4 32.4513 39.4H30.2193ZM30.8433 35.992H31.2993C31.8273 35.992 32.2713 35.926 32.6313 35.794C32.9913 35.662 33.1713 35.452 33.1713 35.164V32.764C33.1713 32.44 33.0533 32.22 32.8173 32.104C32.5853 31.984 32.2553 31.924 31.8273 31.924H30.8433C30.3273 31.924 29.9733 32.016 29.7813 32.2C29.5933 32.384 29.4993 32.74 29.4993 33.268V34.66C29.4993 35.168 29.5933 35.518 29.7813 35.71C29.9693 35.898 30.3233 35.992 30.8433 35.992ZM37.9885 37C37.4805 37 37.0785 36.896 36.7825 36.688C36.4865 36.476 36.2965 36.16 36.2125 35.74C36.1845 35.572 36.2165 35.44 36.3085 35.344C36.4045 35.248 36.5365 35.2 36.7045 35.2C36.8685 35.2 36.9865 35.242 37.0585 35.326C37.1345 35.406 37.1965 35.528 37.2445 35.692C37.2925 35.812 37.3725 35.892 37.4845 35.932C37.6005 35.972 37.7685 35.992 37.9885 35.992H39.9565C40.2685 35.992 40.4785 35.942 40.5865 35.842C40.6945 35.738 40.7485 35.524 40.7485 35.2C40.7485 34.88 40.6945 34.668 40.5865 34.564C40.4785 34.46 40.2685 34.408 39.9565 34.408H38.0245C37.4485 34.408 37.0145 34.262 36.7225 33.97C36.4305 33.678 36.2845 33.244 36.2845 32.668C36.2845 32.08 36.4265 31.642 36.7105 31.354C36.9985 31.062 37.4365 30.916 38.0245 30.916H39.8965C40.8365 30.916 41.3925 31.312 41.5645 32.104C41.5965 32.272 41.5645 32.402 41.4685 32.494C41.3725 32.586 41.2405 32.632 41.0725 32.632C40.9165 32.632 40.8005 32.592 40.7245 32.512C40.6485 32.428 40.5885 32.312 40.5445 32.164C40.4965 32.068 40.4225 32.004 40.3225 31.972C40.2265 31.94 40.0845 31.924 39.8965 31.924H38.0245C37.7205 31.924 37.5225 31.97 37.4305 32.062C37.3385 32.154 37.2925 32.356 37.2925 32.668C37.2925 32.956 37.3405 33.15 37.4365 33.25C37.5365 33.35 37.7325 33.4 38.0245 33.4H39.9565C40.5565 33.4 41.0065 33.55 41.3065 33.85C41.6065 34.15 41.7565 34.6 41.7565 35.2C41.7565 35.804 41.6065 36.256 41.3065 36.556C41.0065 36.852 40.5565 37 39.9565 37H37.9885ZM48.3004 37H43.8124C43.4684 37 43.2964 36.832 43.2964 36.496C43.2964 35.96 43.3804 35.504 43.5484 35.128C43.7204 34.748 43.9384 34.428 44.2024 34.168C44.4704 33.904 44.7544 33.682 45.0544 33.502C45.3544 33.318 45.6324 33.152 45.8884 33.004C46.3324 32.752 46.7024 32.534 46.9984 32.35C47.2984 32.166 47.5224 31.978 47.6704 31.786C47.8184 31.594 47.8924 31.36 47.8924 31.084C47.8924 30.608 47.8064 30.288 47.6344 30.124C47.4664 29.956 47.1484 29.872 46.6804 29.872H45.3964C45.0204 29.872 44.7424 29.922 44.5624 30.022C44.3824 30.122 44.2684 30.308 44.2204 30.58C44.1924 30.74 44.1384 30.862 44.0584 30.946C43.9784 31.03 43.8564 31.072 43.6924 31.072C43.5244 31.072 43.3964 31.028 43.3084 30.94C43.2204 30.848 43.1844 30.716 43.2004 30.544C43.2844 29.98 43.5064 29.56 43.8664 29.284C44.2264 29.004 44.7364 28.864 45.3964 28.864H46.6804C47.4324 28.864 47.9904 29.046 48.3544 29.41C48.7184 29.774 48.9004 30.332 48.9004 31.084C48.9004 31.564 48.7824 31.966 48.5464 32.29C48.3104 32.61 48.0004 32.894 47.6164 33.142C47.2324 33.386 46.8204 33.632 46.3804 33.88C46.0604 34.064 45.7564 34.248 45.4684 34.432C45.1844 34.616 44.9404 34.83 44.7364 35.074C44.5364 35.318 44.4044 35.624 44.3404 35.992H48.3004C48.6364 35.992 48.8044 36.16 48.8044 36.496C48.8044 36.832 48.6364 37 48.3004 37ZM52.3823 37C51.5863 37 50.9943 36.808 50.6063 36.424C50.2223 36.036 50.0303 35.444 50.0303 34.648V33.268C50.0303 32.468 50.2223 31.876 50.6063 31.492C50.9943 31.108 51.5863 30.916 52.3823 30.916H54.7103V29.056C54.7103 28.72 54.8783 28.552 55.2143 28.552C55.5503 28.552 55.7183 28.72 55.7183 29.056V36.496C55.7183 36.832 55.5503 37 55.2143 37C54.8783 37 54.7103 36.832 54.7103 36.496V36.412C54.5223 36.604 54.2763 36.75 53.9723 36.85C53.6683 36.95 53.2903 37 52.8383 37H52.3823ZM52.3823 35.992H52.8383C53.3663 35.992 53.8103 35.924 54.1703 35.788C54.5303 35.652 54.7103 35.444 54.7103 35.164V31.924H52.3823C51.8623 31.924 51.5083 32.02 51.3203 32.212C51.1323 32.4 51.0383 32.752 51.0383 33.268V34.648C51.0383 35.168 51.1323 35.522 51.3203 35.71C51.5123 35.898 51.8663 35.992 52.3823 35.992ZM60.1636 37C59.3676 37 58.7756 36.808 58.3876 36.424C58.0036 36.04 57.8116 35.452 57.8116 34.66V33.268C57.8116 32.464 58.0036 31.872 58.3876 31.492C58.7756 31.108 59.3676 30.916 60.1636 30.916H61.1476C61.9476 30.916 62.5396 31.108 62.9236 31.492C63.3076 31.876 63.4996 32.468 63.4996 33.268V34.648C63.4996 35.444 63.3076 36.036 62.9236 36.424C62.5396 36.808 61.9476 37 61.1476 37H60.1636ZM58.8196 34.66C58.8196 35.176 58.9136 35.528 59.1016 35.716C59.2896 35.9 59.6436 35.992 60.1636 35.992H61.1476C61.6716 35.992 62.0256 35.898 62.2096 35.71C62.3976 35.522 62.4916 35.168 62.4916 34.648V33.268C62.4916 32.744 62.3976 32.39 62.2096 32.206C62.0256 32.018 61.6716 31.924 61.1476 31.924H60.1636C59.8156 31.924 59.5436 31.964 59.3476 32.044C59.1556 32.12 59.0196 32.256 58.9396 32.452C58.8596 32.644 58.8196 32.916 58.8196 33.268V34.66Z" fill="#6482AD"/>
</svg>
